<?xml version="1.0" encoding="UTF-8" standalone="no"?>
<!DOCTYPE svg PUBLIC "-//W3C//DTD SVG 1.1//EN"
 "http://www.w3.org/Graphics/SVG/1.1/DTD/svg11.dtd">
<!-- Generated by graphviz version 2.38.0 (20140413.2041)
 -->
<!-- Title: %3 Pages: 1 -->
<svg width="308pt" height="188pt"
 viewBox="0.00 0.00 308.50 188.00" xmlns="http://www.w3.org/2000/svg" xmlns:xlink="http://www.w3.org/1999/xlink">
<g id="graph0" class="graph" transform="scale(1 1) rotate(0) translate(4 184)">
<title>%3</title>
<polygon fill="white" stroke="none" points="-4,4 -4,-184 304.499,-184 304.499,4 -4,4"/>
<!-- Altstadt -->
<g id="node1" class="node"><title>Altstadt</title>
<ellipse fill="none" stroke="black" cx="141.357" cy="-162" rx="38.1938" ry="18"/>
<text text-anchor="middle" x="141.357" y="-158.3" font-family="Times,serif" font-size="14.00">Altstadt</text>
</g>
<!-- Kneiphof -->
<g id="node3" class="node"><title>Kneiphof</title>
<ellipse fill="none" stroke="black" cx="75.357" cy="-90" rx="44.393" ry="18"/>
<text text-anchor="middle" x="75.357" y="-86.3" font-family="Times,serif" font-size="14.00">Kneiphof</text>
</g>
<!-- Altstadt&#45;&gt;Kneiphof -->
<g id="edge3" class="edge"><title>Altstadt:s&#45;&gt;Kneiphof:ne</title>
<path fill="none" stroke="black" d="M141.357,-144C141.357,-120.566 118.878,-125.073 100.446,-114.222"/>
<polygon fill="black" stroke="black" points="102.417,-111.323 92.357,-108 98.1495,-116.871 102.417,-111.323"/>
</g>
<!-- Lomse -->
<g id="node2" class="node"><title>Lomse</title>
<ellipse fill="none" stroke="black" cx="240.357" cy="-90" rx="35.194" ry="18"/>
<text text-anchor="middle" x="240.357" y="-86.3" font-family="Times,serif" font-size="14.00">Lomse</text>
</g>
<!-- Lomse&#45;&gt;Altstadt -->
<g id="edge2" class="edge"><title>Lomse:n&#45;&gt;Altstadt:e</title>
<path fill="none" stroke="black" d="M240.357,-108C240.357,-140.076 221.261,-158.233 191.415,-161.473"/>
<polygon fill="black" stroke="black" points="191.16,-157.982 181.357,-162 191.526,-164.972 191.16,-157.982"/>
</g>
<!-- Kneiphof&#45;&gt;Altstadt -->
<g id="edge7" class="edge"><title>Kneiphof:n&#45;&gt;Altstadt:w</title>
<path fill="none" stroke="black" d="M75.357,-108C75.357,-130.683 74.895,-153.893 91.2067,-160.283"/>
<polygon fill="black" stroke="black" points="90.9133,-163.783 101.357,-162 92.0807,-156.881 90.9133,-163.783"/>
</g>
<!-- Kneiphof&#45;&gt;Lomse -->
<g id="edge6" class="edge"><title>Kneiphof:e&#45;&gt;Lomse:w</title>
<path fill="none" stroke="black" d="M119.553,-90C154.074,-90 165.131,-90 195.253,-90"/>
<polygon fill="black" stroke="black" points="195.26,-93.5001 205.26,-90 195.26,-86.5001 195.26,-93.5001"/>
</g>
<!-- start -->
<g id="node4" class="node"><title>start</title>
<ellipse fill="none" stroke="black" cx="121.357" cy="-18" rx="27" ry="18"/>
<text text-anchor="middle" x="121.357" y="-14.3" font-family="Times,serif" font-size="14.00">start</text>
</g>
<!-- Kneiphof&#45;&gt;start -->
<g id="edge4" class="edge"><title>Kneiphof:s&#45;&gt;start:w</title>
<path fill="none" stroke="black" d="M75.357,-72C75.357,-50.8523 70.257,-27.3262 83.3615,-20.1759"/>
<polygon fill="black" stroke="black" points="84.3303,-23.547 93.357,-18 82.8413,-16.7072 84.3303,-23.547"/>
</g>
<!-- start&#45;&gt;Lomse -->
<g id="edge1" class="edge"><title>start:e&#45;&gt;Lomse:s</title>
<path fill="none" stroke="black" d="M149.357,-18C192.712,-18 233.468,-23.9241 239.571,-61.6952"/>
<polygon fill="black" stroke="black" points="236.107,-62.295 240.357,-72 243.087,-61.7628 236.107,-62.295"/>
</g>
<!-- start&#45;&gt;Kneiphof -->
<g id="edge5" class="edge"><title>start:n&#45;&gt;Kneiphof:se</title>
<path fill="none" stroke="black" d="M121.357,-36C121.357,-52.8538 111.619,-56.5057 100.099,-65.2933"/>
<polygon fill="black" stroke="black" points="97.6239,-62.8071 92.357,-72 102.207,-68.098 97.6239,-62.8071"/>
</g>
</g>
</svg>
