<?xml version="1.0" encoding="UTF-8" standalone="no"?>
<!DOCTYPE svg PUBLIC "-//W3C//DTD SVG 1.1//EN"
 "http://www.w3.org/Graphics/SVG/1.1/DTD/svg11.dtd">
<!-- Generated by graphviz version 2.38.0 (20140413.2041)
 -->
<!-- Title: finite_state_machine Pages: 1 -->
<svg width="170pt" height="46pt"
 viewBox="0.00 0.00 170.00 45.75" xmlns="http://www.w3.org/2000/svg" xmlns:xlink="http://www.w3.org/1999/xlink">
<g id="graph0" class="graph" transform="scale(1 1) rotate(0) translate(4 41.7532)">
<title>finite_state_machine</title>
<polygon fill="white" stroke="none" points="-4,4 -4,-41.7532 166,-41.7532 166,4 -4,4"/>
<!-- start -->
<g id="node1" class="node"><title>start</title>
<ellipse fill="none" stroke="black" cx="18" cy="-18.8157" rx="18" ry="18"/>
<text text-anchor="middle" x="18" y="-15.1157" font-family="Times,serif" font-size="14.00">start</text>
</g>
<!-- loop -->
<g id="node2" class="node"><title>loop</title>
<ellipse fill="none" stroke="black" cx="98" cy="-18.8157" rx="18" ry="18"/>
<text text-anchor="middle" x="98" y="-15.1157" font-family="Times,serif" font-size="14.00">loop</text>
</g>
<!-- start&#45;&gt;loop -->
<g id="edge1" class="edge"><title>start&#45;&gt;loop</title>
<path fill="none" stroke="black" d="M36.1532,-18.8157C46.0749,-18.8157 58.5833,-18.8157 69.7508,-18.8157"/>
<polygon fill="black" stroke="black" points="69.9186,-22.3158 79.9186,-18.8157 69.9186,-15.3158 69.9186,-22.3158"/>
<text text-anchor="middle" x="58" y="-25.6157" font-family="Times,serif" font-size="14.00">intro</text>
</g>
<!-- loop&#45;&gt;loop -->
<g id="edge2" class="edge"><title>loop:ne&#45;&gt;loop:se</title>
<path fill="none" stroke="black" d="M111,-31.8157C122,-40.8157 134,-40.8157 134,-18.8157 134,-2.65948 127.528,1.63203 119.734,-0.792521"/>
<polygon fill="black" stroke="black" points="117.923,2.20402 111,-5.81573 121.414,-3.86393 117.923,2.20402"/>
<text text-anchor="middle" x="148" y="-15.1157" font-family="Times,serif" font-size="14.00">main</text>
</g>
</g>
</svg>
